<?xml version="1.0" standalone="no"?>
<!DOCTYPE svg PUBLIC "-//W3C//DTD SVG 20010904//EN"
 "http://www.w3.org/TR/2001/REC-SVG-20010904/DTD/svg10.dtd">
<svg version="1.0" xmlns="http://www.w3.org/2000/svg"
 width="150.000000pt" height="150.000000pt" viewBox="0 0 150.000000 150.000000"
 preserveAspectRatio="xMidYMid meet">

<g transform="translate(0.000000,150.000000) scale(0.100000,-0.100000)"
fill="#000000" stroke="none">
<path d="M0 750 l0 -750 750 0 750 0 0 750 0 750 -750 0 -750 0 0 -750z m933
532 c12 1 27 6 34 11 7 5 17 6 23 2 5 -3 22 3 37 15 21 16 28 18 35 8 8 -10
11 -10 15 0 7 19 26 14 21 -5 -4 -14 2 -18 29 -19 18 0 33 3 33 8 0 4 5 8 10
8 6 0 8 -10 4 -24 -5 -21 -3 -23 23 -20 15 2 23 2 17 -1 -17 -9 7 -55 28 -55
11 0 15 -5 12 -15 -4 -8 -1 -15 6 -15 7 0 10 -7 7 -15 -4 -8 -2 -17 3 -20 6
-3 5 -16 0 -31 -13 -33 -13 -34 5 -34 8 0 15 -7 15 -15 0 -9 -6 -12 -17 -9
-17 5 -17 5 0 -6 9 -6 17 -15 17 -20 0 -5 -8 -6 -17 -3 -16 6 -17 5 -3 -12 11
-14 11 -17 1 -11 -21 13 -32 -14 -15 -38 16 -23 19 -126 4 -126 -5 0 -10 -9
-10 -20 0 -26 -37 -49 -91 -55 -53 -7 -93 11 -97 43 -2 12 -8 20 -13 17 -5 -4
-9 19 -9 54 0 36 -5 63 -12 67 -19 12 -99 15 -93 3 4 -5 17 -9 31 -9 21 0 24
-4 19 -20 -3 -11 -2 -20 3 -20 5 0 7 -12 4 -28 -3 -25 22 -225 34 -264 4 -15
-1 -18 -30 -18 -34 0 -35 1 -29 30 5 29 4 30 -31 30 -33 0 -36 -2 -36 -30 0
-28 -3 -30 -36 -30 -19 0 -33 4 -30 8 6 9 36 193 36 218 0 14 -2 15 -17 3 -20
-17 -25 -16 -34 8 -6 14 -8 12 -8 -10 -1 -30 -17 -68 -34 -78 -10 -7 18 -103
35 -123 15 -19 8 -26 -27 -26 -27 0 -35 4 -35 18 0 30 -31 112 -42 112 -7 0
-9 -23 -6 -65 l6 -65 -32 0 -31 0 3 152 c2 138 1 151 -13 134 -18 -24 -20 -14
-3 14 16 25 1 54 -31 58 -24 4 -28 20 -7 28 24 9 42 100 24 121 -8 10 -6 13 6
13 9 0 16 4 16 10 0 5 6 9 12 7 8 -1 12 8 10 25 -3 22 2 30 22 39 15 7 26 21
27 33 0 12 3 16 6 9 6 -16 43 5 43 24 0 15 16 17 24 5 3 -5 22 -6 43 -3 30 5
41 13 53 38 15 31 15 31 23 8 6 -16 16 -23 30 -23z m-555 -312 c29 -27 36 -59
29 -135 -5 -47 -2 -72 10 -95 21 -42 13 -131 -14 -168 -19 -26 -25 -27 -116
-30 l-96 -3 10 33 c12 43 12 360 -1 392 l-10 26 83 0 c70 0 87 -3 105 -20z
m632 -30 c0 -5 -2 -10 -4 -10 -3 0 -8 5 -11 10 -3 6 -1 10 4 10 6 0 11 -4 11
-10z m-430 -31 c0 -35 37 -280 46 -303 5 -13 -1 -16 -29 -16 -33 0 -36 2 -34
28 2 25 -1 27 -37 30 -38 3 -39 3 -33 -27 6 -30 5 -31 -29 -31 -19 0 -33 4
-30 8 8 14 46 261 46 302 l0 40 50 0 c49 0 50 -1 50 -31z m679 -321 c-21 -51
-88 -71 -159 -47 -41 15 -60 58 -60 136 l0 58 72 -1 c58 0 81 4 113 23 l40 23
3 -82 c2 -47 -2 -94 -9 -110z m-738 -53 l7 -30 1 33 c1 41 26 43 35 1 5 -28
27 -59 40 -59 13 0 5 31 -9 36 -23 9 -19 54 4 54 22 0 37 -17 26 -28 -4 -4
-10 -1 -12 6 -6 14 -23 16 -23 2 0 -5 9 -19 21 -31 11 -11 18 -26 16 -32 -5
-15 -57 -17 -74 -4 -9 6 -13 6 -13 -2 0 -6 -16 -11 -37 -11 l-38 0 0 50 c0 48
1 51 25 48 19 -2 27 -11 31 -33z m181 3 l1 -33 4 33 c4 33 5 33 51 30 l47 -3
0 -45 0 -45 -75 -2 -75 -2 3 50 c3 40 7 49 23 49 14 0 19 -8 21 -32z m125 -45
c-2 -16 -4 -3 -4 27 0 30 2 43 4 28 2 -16 2 -40 0 -55z m63 40 c0 -28 3 -34
10 -23 5 8 10 25 10 38 0 13 6 22 15 22 9 0 15 -9 15 -23 0 -22 29 -67 44 -67
14 0 5 23 -16 39 -13 11 -19 24 -15 34 9 23 47 22 46 0 0 -11 -3 -13 -6 -5 -7
17 -23 15 -23 -3 0 -9 7 -18 15 -21 8 -4 15 -17 15 -31 0 -21 -4 -24 -27 -22
-16 2 -33 7 -40 12 -6 4 -14 3 -18 -3 -3 -5 -22 -10 -41 -10 l-34 0 0 50 c0
47 2 50 25 50 22 0 25 -4 25 -37z m-450 -17 c0 -3 -4 -8 -10 -11 -5 -3 -10 -1
-10 4 0 6 5 11 10 11 6 0 10 -2 10 -4z m626 -123 c-3 -32 -5 -59 -6 -60 0 -1
-7 1 -17 4 -10 4 -14 2 -9 -5 3 -6 -6 -22 -21 -36 -30 -28 -43 -20 -35 22 5
24 77 132 89 132 3 0 2 -26 -1 -57z m-154 3 c46 -21 -36 -62 -91 -46 -35 10
-61 27 -61 41 0 15 119 19 152 5z"/>
<path d="M1098 923 c-39 -10 -15 -23 41 -23 63 0 91 6 91 21 0 9 -100 11 -132
2z"/>
<path d="M1185 889 c-16 -6 -49 -7 -73 -5 -41 6 -43 5 -36 -17 4 -12 7 -35 7
-50 -1 -25 2 -28 23 -24 13 2 21 0 18 -4 -9 -16 66 -9 91 7 20 13 25 25 25 60
0 47 -3 49 -55 33z m-31 -85 c3 -8 2 -12 -4 -9 -6 3 -10 10 -10 16 0 14 7 11
14 -7z"/>
<path d="M700 835 c0 -41 4 -57 16 -62 22 -8 36 10 40 54 3 42 -9 63 -37 63
-16 0 -19 -8 -19 -55z"/>
<path d="M927 820 c-3 -14 -9 -45 -14 -70 -6 -28 -14 -44 -22 -42 -7 1 -11 -3
-9 -10 7 -20 98 -21 98 -2 0 8 -4 12 -10 9 -10 -6 -14 8 -28 90 -7 41 -10 45
-15 25z"/>
<path d="M270 865 l0 -65 30 0 c34 0 50 23 50 72 0 41 -15 58 -52 58 -28 0
-28 0 -28 -65z"/>
<path d="M277 734 c-4 -4 -7 -36 -7 -71 l0 -64 43 3 42 3 3 54 c2 30 0 57 -5
61 -12 12 -68 22 -76 14z"/>
<path d="M528 844 c-4 -6 -10 -41 -14 -77 -6 -63 -6 -67 14 -67 11 0 22 3 24
8 7 13 -17 147 -24 136z"/>
<path d="M1121 701 c-19 -5 -21 -8 -10 -17 21 -16 86 -16 92 0 9 22 -34 31
-82 17z"/>
<path d="M1222 676 c-9 -21 -17 -24 -64 -24 -29 0 -59 5 -65 10 -24 19 -14
-12 12 -37 46 -47 113 -22 130 48 9 33 2 35 -13 3z"/>
<path d="M480 520 c0 -22 5 -40 10 -40 6 0 10 18 10 40 0 22 -4 40 -10 40 -5
0 -10 -18 -10 -40z"/>
<path d="M541 514 c0 -11 3 -14 6 -6 3 7 2 16 -1 19 -3 4 -6 -2 -5 -13z"/>
<path d="M670 545 c0 -8 5 -15 10 -15 6 0 10 7 10 15 0 8 -4 15 -10 15 -5 0
-10 -7 -10 -15z"/>
<path d="M730 551 c0 -5 6 -12 13 -15 10 -5 10 -7 0 -12 -18 -8 -16 -44 2 -44
11 0 15 11 15 40 0 29 -4 40 -15 40 -8 0 -15 -4 -15 -9z"/>
<path d="M776 551 c-4 -7 -5 -15 -2 -18 9 -9 19 4 14 18 -4 11 -6 11 -12 0z"/>
<path d="M670 501 c0 -6 5 -13 10 -16 6 -3 10 1 10 9 0 9 -4 16 -10 16 -5 0
-10 -4 -10 -9z"/>
<path d="M776 495 c4 -8 10 -12 15 -9 11 6 2 24 -11 24 -5 0 -7 -7 -4 -15z"/>
<path d="M860 520 c0 -22 5 -40 10 -40 6 0 10 18 10 40 0 22 -4 40 -10 40 -5
0 -10 -18 -10 -40z"/>
<path d="M921 514 c0 -11 3 -14 6 -6 3 7 2 16 -1 19 -3 4 -6 -2 -5 -13z"/>
<path d="M990 339 c0 -5 5 -7 10 -4 6 3 10 8 10 11 0 2 -4 4 -10 4 -5 0 -10
-5 -10 -11z"/>
</g>
</svg>
